# xmcd CD database file
#
# Track frame offsets:
#	330
#	17322
#	33394
#	51138
#	60431
#	73805
#	76256
#	83648
#	87754
#	94570
#	100876
#	109214
#	111739
#	114895
#
# Disc length: 1569 seconds
#
# Revision: 1
# Processed by: cddbd v1.5.1PL2 Copyright (c) Steve Scherf et al.
# Submitted via: CDex 1.51
#
DISCID=a6061d0e
DTITLE=Various Artist - Canciones Para Los Max Chiquititos
DYEAR=2000
DGENRE=Children
TTITLE0=Chiquillada - Jardin Unicornio
TTITLE1=Pinocho - Julien Turnes
TTITLE2=El Do De Mic Clarinete - Jardin Unicornio
TTITLE3=Hola Don Pepito - Maria Gracia Y Julien
TTITLE4=Vamos Al Zoologico  - Jardin Unicornio
TTITLE5=El Payaso Plin Plin - Jardin Unicornio
TTITLE6=A Ver, A Ver - Jardin Unicornio
TTITLE7=El Gallo Pinto - Jennifer Grimaud
TTITLE8=Pequena Historia Dibujada - Marta Harte
TTITLE9=Tio Monica - Jardin Unicornio
TTITLE10=Tengo Una Muneca Vestida De Azul - Maria Gracia
TTITLE11=Arroz Con Leche - Jardin Unicornio
TTITLE12=Feliz Cumpleanos En Murga - La Murga
TTITLE13=Feliz Cumpleanos - Jardin Unicornio
EXTD=YEAR: 2000
EXTT0=
EXTT1=
EXTT2=
EXTT3=
EXTT4=
EXTT5=
EXTT6=
EXTT7=
EXTT8=
EXTT9=
EXTT10=
EXTT11=
EXTT12=
EXTT13=
PLAYORDER=
